<svg xmlns="http://www.w3.org/2000/svg" viewBox="0 0 200 19.01"><defs><style>.cls-1{fill:#ababa5;}</style></defs><title>Risorsa 2</title><g id="Livello_2" data-name="Livello 2"><g id="Livello_1-2" data-name="Livello 1"><path class="cls-1" d="M0,.43H8.66a6.7,6.7,0,0,1,4.5,1.3,4.51,4.51,0,0,1,1.5,3.61,5.29,5.29,0,0,1-.38,2.14,4.63,4.63,0,0,1-.89,1.38,3.52,3.52,0,0,1-1,.74,5.82,5.82,0,0,1-.73.31V10a3.69,3.69,0,0,1,.88.25,2.9,2.9,0,0,1,.88.65A3.58,3.58,0,0,1,14.09,12a5.05,5.05,0,0,1,.27,1.78,16.15,16.15,0,0,0,.24,2.91,3.86,3.86,0,0,0,.75,1.87H11.94a3.21,3.21,0,0,1-.42-1.3c0-.48-.06-.93-.06-1.37a13.32,13.32,0,0,0-.15-2.15,3.76,3.76,0,0,0-.56-1.5,2.37,2.37,0,0,0-1.11-.88,5,5,0,0,0-1.79-.28H3.18v7.48H0ZM3.18,8.69h5.2A3.34,3.34,0,0,0,10.7,8a2.85,2.85,0,0,0,.78-2.18,3.39,3.39,0,0,0-.25-1.41,2.1,2.1,0,0,0-.7-.85,2.44,2.44,0,0,0-1-.4A6.56,6.56,0,0,0,8.34,3H3.18Z"/><path class="cls-1" d="M29,18.58H26.17V16.75h-.05a3.9,3.9,0,0,1-1.59,1.58,4.29,4.29,0,0,1-2.14.6,4.84,4.84,0,0,1-3.75-1.28,5.66,5.66,0,0,1-1.16-3.88V5.44h2.9v8.05A3.55,3.55,0,0,0,21,15.93a2.38,2.38,0,0,0,1.85.71,3.64,3.64,0,0,0,1.53-.28,2.66,2.66,0,0,0,1-.75A2.7,2.7,0,0,0,26,14.48a5.82,5.82,0,0,0,.17-1.42V5.44H29Z"/><path class="cls-1" d="M34.25,14.36a2.21,2.21,0,0,0,1,1.78,3.85,3.85,0,0,0,2,.5,8,8,0,0,0,.93-.06,3.91,3.91,0,0,0,1-.24,1.84,1.84,0,0,0,.75-.52A1.4,1.4,0,0,0,39.74,14a2.82,2.82,0,0,0-1-.57,9.8,9.8,0,0,0-1.36-.37l-1.55-.33a14.85,14.85,0,0,1-1.56-.43,5.06,5.06,0,0,1-1.35-.69,3.18,3.18,0,0,1-.95-1.1,3.53,3.53,0,0,1-.35-1.67,3,3,0,0,1,.52-1.79,3.93,3.93,0,0,1,1.32-1.17,5.86,5.86,0,0,1,1.78-.62,10.25,10.25,0,0,1,1.86-.18,8.83,8.83,0,0,1,2,.22,5.18,5.18,0,0,1,1.67.7A4.06,4.06,0,0,1,42,7.26a4.27,4.27,0,0,1,.62,1.86h-3a1.78,1.78,0,0,0-1-1.39,3.9,3.9,0,0,0-1.71-.36,7.25,7.25,0,0,0-.73,0,3.3,3.3,0,0,0-.78.19,1.6,1.6,0,0,0-.63.41,1,1,0,0,0-.25.7,1.09,1.09,0,0,0,.37.86,3,3,0,0,0,1,.55,9.7,9.7,0,0,0,1.35.36l1.58.33c.53.12,1,.27,1.55.44a5.25,5.25,0,0,1,1.36.68A3.13,3.13,0,0,1,43,14.66a3.49,3.49,0,0,1-.53,2A4.21,4.21,0,0,1,41.12,18a6.3,6.3,0,0,1-1.89.73,9.71,9.71,0,0,1-2.06.23,8.84,8.84,0,0,1-2.3-.28,5.18,5.18,0,0,1-1.82-.85,4,4,0,0,1-1.22-1.42,4.53,4.53,0,0,1-.48-2Z"/><path class="cls-1" d="M47.44,14.36a2.16,2.16,0,0,0,1,1.78,3.83,3.83,0,0,0,2,.5,8.3,8.3,0,0,0,.93-.06,3.91,3.91,0,0,0,1-.24,1.91,1.91,0,0,0,.75-.52A1.43,1.43,0,0,0,52.93,14a2.91,2.91,0,0,0-1-.57,9.8,9.8,0,0,0-1.36-.37L49,12.73a14.85,14.85,0,0,1-1.56-.43,5.06,5.06,0,0,1-1.35-.69,3,3,0,0,1-1-1.1,3.53,3.53,0,0,1-.36-1.67,3.05,3.05,0,0,1,.52-1.79,4.13,4.13,0,0,1,1.32-1.17,6.05,6.05,0,0,1,1.78-.62,10.36,10.36,0,0,1,1.87-.18,8.74,8.74,0,0,1,1.94.22,5.24,5.24,0,0,1,1.68.7,3.93,3.93,0,0,1,1.24,1.26,4.28,4.28,0,0,1,.63,1.86h-3a1.77,1.77,0,0,0-1-1.39,3.9,3.9,0,0,0-1.71-.36,7.06,7.06,0,0,0-.73,0,3.18,3.18,0,0,0-.78.19A1.6,1.6,0,0,0,48,8a1,1,0,0,0-.25.7,1.09,1.09,0,0,0,.37.86,3,3,0,0,0,1,.55,9.86,9.86,0,0,0,1.36.36l1.58.33c.52.12,1,.27,1.55.44a5.25,5.25,0,0,1,1.36.68,3.3,3.3,0,0,1,1,1.1,3.23,3.23,0,0,1,.37,1.62,3.57,3.57,0,0,1-.53,2A4.21,4.21,0,0,1,54.31,18a6.52,6.52,0,0,1-1.89.73,9.78,9.78,0,0,1-2.06.23,8.79,8.79,0,0,1-2.3-.28,5.32,5.32,0,0,1-1.83-.85A4.07,4.07,0,0,1,45,16.38a4.66,4.66,0,0,1-.47-2Z"/><path class="cls-1" d="M58.52.43h2.89V3.18H58.52Zm0,5h2.89V18.58H58.52Z"/><path class="cls-1" d="M75.57,15.65a1.5,1.5,0,0,0,.14.77.58.58,0,0,0,.54.22h.31a1.51,1.51,0,0,0,.4-.05v2l-.39.12-.5.11-.5.08-.44,0a2.86,2.86,0,0,1-1.47-.35,1.8,1.8,0,0,1-.76-1.25,5.14,5.14,0,0,1-2.12,1.22,8.52,8.52,0,0,1-2.43.38,6,6,0,0,1-1.7-.24A4.61,4.61,0,0,1,65.21,18a3.43,3.43,0,0,1-1-1.2,3.73,3.73,0,0,1-.37-1.69,3.87,3.87,0,0,1,.45-2,3.18,3.18,0,0,1,1.17-1.19,5.26,5.26,0,0,1,1.62-.63c.6-.12,1.21-.22,1.82-.29a14.2,14.2,0,0,1,1.5-.21,8.2,8.2,0,0,0,1.26-.22,1.93,1.93,0,0,0,.86-.47,1.3,1.3,0,0,0,.32-.95,1.5,1.5,0,0,0-.27-.92,1.81,1.81,0,0,0-.66-.54A3,3,0,0,0,71,7.43a7.31,7.31,0,0,0-.91-.06,3.63,3.63,0,0,0-2,.51,2,2,0,0,0-.89,1.57H64.34A4.34,4.34,0,0,1,65,7.34,4.12,4.12,0,0,1,66.3,6a5.46,5.46,0,0,1,1.87-.71,10.86,10.86,0,0,1,2.14-.21,8.71,8.71,0,0,1,1.9.21A5.14,5.14,0,0,1,73.9,6a3.69,3.69,0,0,1,1.21,1.18,3.27,3.27,0,0,1,.46,1.76ZM72.67,12a3.38,3.38,0,0,1-1.63.52c-.64.06-1.29.15-1.93.27a6.8,6.8,0,0,0-.89.22,2.71,2.71,0,0,0-.76.38,1.7,1.7,0,0,0-.52.63,2.16,2.16,0,0,0-.19,1,1.19,1.19,0,0,0,.28.81,2.12,2.12,0,0,0,.67.52,3,3,0,0,0,.87.27,5.3,5.3,0,0,0,.85.07,5,5,0,0,0,1-.12,3.69,3.69,0,0,0,1.05-.43,3,3,0,0,0,.83-.78,2,2,0,0,0,.33-1.16Z"/><path class="cls-1" d="M78.85.43l5.89,16.24h.05L90.63.43h1.83L85.73,18.58h-2L77,.43Z"/><path class="cls-1" d="M95.54.43V3h-1.6V.43Zm0,5V18.58h-1.6V5.46Z"/><path class="cls-1" d="M106.16,8a2.55,2.55,0,0,0-.75-.9,3.21,3.21,0,0,0-1.08-.53,5,5,0,0,0-1.3-.16,5.82,5.82,0,0,0-1.08.11,3.36,3.36,0,0,0-1,.39,2.22,2.22,0,0,0-.74.69,2,2,0,0,0-.28,1.07,1.46,1.46,0,0,0,.27.9,2.21,2.21,0,0,0,.67.62,3.83,3.83,0,0,0,.89.42c.32.11.62.2.89.27l2.14.48a6.88,6.88,0,0,1,1.36.37,4.55,4.55,0,0,1,1.19.7,3.44,3.44,0,0,1,.85,1.07,3.19,3.19,0,0,1,.33,1.5,3.26,3.26,0,0,1-.48,1.81,3.87,3.87,0,0,1-1.23,1.22,5.26,5.26,0,0,1-1.69.68,9.2,9.2,0,0,1-1.86.2,6,6,0,0,1-3.75-1.09,4.7,4.7,0,0,1-1.64-3.51h1.61a3.12,3.12,0,0,0,1.18,2.45,4.28,4.28,0,0,0,2.68.83,5.73,5.73,0,0,0,1.21-.13,3.79,3.79,0,0,0,1.15-.43,2.74,2.74,0,0,0,.88-.77,1.92,1.92,0,0,0,.34-1.16,1.85,1.85,0,0,0-.24-1,2.15,2.15,0,0,0-.65-.66,4,4,0,0,0-.93-.44c-.34-.12-.69-.22-1-.31L102,12.27a10.73,10.73,0,0,1-1.45-.47,4.17,4.17,0,0,1-1.15-.66,2.8,2.8,0,0,1-.78-1,3.14,3.14,0,0,1-.28-1.41,3.1,3.1,0,0,1,.45-1.7,3.42,3.42,0,0,1,1.15-1.15,5.29,5.29,0,0,1,1.59-.63,7.52,7.52,0,0,1,1.74-.21,6.34,6.34,0,0,1,1.84.26,4.29,4.29,0,0,1,1.5.78,3.76,3.76,0,0,1,1,1.33,4.71,4.71,0,0,1,.44,1.85h-1.61A3,3,0,0,0,106.16,8Z"/><path class="cls-1" d="M111.16,7.5a3.77,3.77,0,0,1,1.11-1.38,4.71,4.71,0,0,1,1.64-.78A7.89,7.89,0,0,1,116,5.08a9.22,9.22,0,0,1,1.73.17,4.32,4.32,0,0,1,1.55.62,3.35,3.35,0,0,1,1.12,1.28,4.75,4.75,0,0,1,.43,2.15v7c0,.65.31,1,.94,1a1.45,1.45,0,0,0,.51-.1v1.34l-.5.08a4,4,0,0,1-.55,0,2.38,2.38,0,0,1-1-.17,1.27,1.27,0,0,1-.57-.47,1.64,1.64,0,0,1-.27-.72,6.53,6.53,0,0,1-.07-.93h0a10.79,10.79,0,0,1-.87,1.13,4.5,4.5,0,0,1-1,.82,4.37,4.37,0,0,1-1.25.51,6.69,6.69,0,0,1-1.66.18,6.81,6.81,0,0,1-1.72-.21,4.08,4.08,0,0,1-1.4-.69,3.4,3.4,0,0,1-.94-1.2,4.07,4.07,0,0,1-.34-1.71,3.44,3.44,0,0,1,.61-2.15,3.92,3.92,0,0,1,1.62-1.18,9.11,9.11,0,0,1,2.26-.57l2.55-.32c.34,0,.63-.08.89-.12a1.87,1.87,0,0,0,.64-.27,1.3,1.3,0,0,0,.39-.52,2.33,2.33,0,0,0,.14-.87A2.89,2.89,0,0,0,119,7.79a2.12,2.12,0,0,0-.74-.83,3,3,0,0,0-1.09-.42,8,8,0,0,0-1.33-.11,4,4,0,0,0-2.49.72,2.83,2.83,0,0,0-1,2.33h-1.6A5.34,5.34,0,0,1,111.16,7.5Zm8,3.91a.93.93,0,0,1-.59.41,6,6,0,0,1-.76.17c-.68.12-1.38.23-2.1.32a11.62,11.62,0,0,0-2,.42,3.84,3.84,0,0,0-1.47.8,1.91,1.91,0,0,0-.57,1.49A2.38,2.38,0,0,0,112,16.1a2.67,2.67,0,0,0,.65.81,2.87,2.87,0,0,0,.94.52,3.41,3.41,0,0,0,1.09.18,5.45,5.45,0,0,0,1.76-.28,4.51,4.51,0,0,0,1.46-.81,4.12,4.12,0,0,0,1-1.3,4,4,0,0,0,.37-1.73V11.41Z"/><path class="cls-1" d="M136.67,6.2a6.15,6.15,0,0,0-.56-1.45,3.88,3.88,0,0,0-.91-1.14,4.11,4.11,0,0,0-1.31-.75,5.65,5.65,0,0,0-4.24.32,5,5,0,0,0-1.72,1.56A7.21,7.21,0,0,0,127,7a10.33,10.33,0,0,0-.31,2.54A10.21,10.21,0,0,0,127,12a7.27,7.27,0,0,0,1,2.23,5,5,0,0,0,1.72,1.56,5.08,5.08,0,0,0,2.5.59,4.6,4.6,0,0,0,1.88-.37,4.32,4.32,0,0,0,1.4-1,4.8,4.8,0,0,0,.91-1.51,7.44,7.44,0,0,0,.44-1.86h3.1a8.86,8.86,0,0,1-.7,3A7.23,7.23,0,0,1,137.56,17a7,7,0,0,1-2.39,1.51,8.16,8.16,0,0,1-3,.54,8.52,8.52,0,0,1-3.64-.75,8,8,0,0,1-2.74-2.05,9.23,9.23,0,0,1-1.71-3,11.15,11.15,0,0,1-.6-3.69,11,11,0,0,1,.6-3.65,9.18,9.18,0,0,1,1.71-3A8.28,8.28,0,0,1,128.51.76,8.38,8.38,0,0,1,132.15,0,9.58,9.58,0,0,1,135,.42a7.55,7.55,0,0,1,2.38,1.22,6.33,6.33,0,0,1,1.66,1.94,6.69,6.69,0,0,1,.79,2.62Z"/><path class="cls-1" d="M144.63,12.76a5.17,5.17,0,0,0,.21,1.47,3.81,3.81,0,0,0,.65,1.25,3.31,3.31,0,0,0,1.09.85,3.65,3.65,0,0,0,1.58.31,3.47,3.47,0,0,0,2-.54,3.21,3.21,0,0,0,1.16-1.64h2.74a5.37,5.37,0,0,1-.78,1.9A5.5,5.5,0,0,1,152,17.77a5.62,5.62,0,0,1-1.77.87,7.24,7.24,0,0,1-2,.29,6.9,6.9,0,0,1-2.74-.51,5.64,5.64,0,0,1-2-1.42,5.92,5.92,0,0,1-1.25-2.19,8.78,8.78,0,0,1-.42-2.79,7.76,7.76,0,0,1,.45-2.65,6.6,6.6,0,0,1,1.27-2.22,6.21,6.21,0,0,1,2-1.51,6.09,6.09,0,0,1,2.64-.56,6,6,0,0,1,4.83,2.37,6.81,6.81,0,0,1,1.18,2.45,7.39,7.39,0,0,1,.19,2.86Zm6.76-1.91a4.53,4.53,0,0,0-.3-1.32,3.63,3.63,0,0,0-.66-1.11,3.49,3.49,0,0,0-1-.76,3.1,3.1,0,0,0-1.34-.29,3.4,3.4,0,0,0-1.38.27,3.09,3.09,0,0,0-1.07.73,3.79,3.79,0,0,0-1,2.48Z"/><path class="cls-1" d="M156.49,5.44h2.75V7.37l0,0A4.73,4.73,0,0,1,161,5.71a4.56,4.56,0,0,1,2.36-.63,4.88,4.88,0,0,1,3.4,1.12A4.29,4.29,0,0,1,168,9.56v9h-2.9V10.32a3.5,3.5,0,0,0-.66-2.25,2.37,2.37,0,0,0-1.9-.7,3.13,3.13,0,0,0-1.33.27,2.87,2.87,0,0,0-1,.73,3.45,3.45,0,0,0-.63,1.11,4,4,0,0,0-.23,1.34v7.76h-2.9Z"/><path class="cls-1" d="M169.76,5.44h2.18V1.5h2.9V5.44h2.62V7.6h-2.62v7a6,6,0,0,0,0,.79,1.32,1.32,0,0,0,.17.56,1,1,0,0,0,.42.34,2,2,0,0,0,.77.12l.61,0a3.33,3.33,0,0,0,.61-.09v2.24l-.94.1c-.31,0-.62.05-1,.05a6.6,6.6,0,0,1-1.84-.21,2.53,2.53,0,0,1-1.09-.64,2.18,2.18,0,0,1-.53-1.05,7.7,7.7,0,0,1-.17-1.45V7.6h-2.18Z"/><path class="cls-1" d="M179.54,5.44h2.72V8h.05a2.9,2.9,0,0,1,.49-1,5.21,5.21,0,0,1,.89-.93,4.62,4.62,0,0,1,1.16-.67,3.42,3.42,0,0,1,1.29-.26,5.27,5.27,0,0,1,.7,0l.4,0V8l-.63-.08a4.3,4.3,0,0,0-.62,0,3.22,3.22,0,0,0-1.38.29,3.13,3.13,0,0,0-1.13.86,4.24,4.24,0,0,0-.77,1.41,6.34,6.34,0,0,0-.27,1.93v6.26h-2.9Z"/><path class="cls-1" d="M190.29,12.76a5.17,5.17,0,0,0,.21,1.47,3.81,3.81,0,0,0,.65,1.25,3.31,3.31,0,0,0,1.09.85,3.65,3.65,0,0,0,1.58.31,3.49,3.49,0,0,0,2-.54A3.21,3.21,0,0,0,197,14.46h2.74a5.37,5.37,0,0,1-.78,1.9,5.67,5.67,0,0,1-1.35,1.41,5.84,5.84,0,0,1-1.77.87,7.24,7.24,0,0,1-2,.29,7,7,0,0,1-2.75-.51,5.73,5.73,0,0,1-2-1.42,6,6,0,0,1-1.24-2.19,8.78,8.78,0,0,1-.42-2.79,8,8,0,0,1,.44-2.65,6.79,6.79,0,0,1,1.28-2.22,6.21,6.21,0,0,1,2-1.51,6.09,6.09,0,0,1,2.64-.56,5.92,5.92,0,0,1,4.83,2.37,6.81,6.81,0,0,1,1.18,2.45,7.39,7.39,0,0,1,.19,2.86Zm6.76-1.91a4.88,4.88,0,0,0-.3-1.32,3.63,3.63,0,0,0-.66-1.11,3.49,3.49,0,0,0-1-.76,3.1,3.1,0,0,0-1.34-.29,3.4,3.4,0,0,0-1.38.27,3.09,3.09,0,0,0-1.07.73,3.79,3.79,0,0,0-1,2.48Z"/></g></g></svg>